<?xml version="1.0" encoding="UTF-8" standalone="no"?>
<!DOCTYPE svg PUBLIC "-//W3C//DTD SVG 1.1//EN" "http://www.w3.org/Graphics/SVG/1.1/DTD/svg11.dtd">
<!-- Created with Vectornator (http://vectornator.io/) -->
<svg height="1024.0px" stroke-miterlimit="10" style="fill-rule:nonzero;clip-rule:evenodd;stroke-linecap:round;stroke-linejoin:round;" version="1.1" viewBox="0 0 1024 1024" width="1024.0px" xml:space="preserve" xmlns="http://www.w3.org/2000/svg" xmlns:xlink="http://www.w3.org/1999/xlink">
<defs/>
<g id="Ebene-1">
<g opacity="1">
<g opacity="1">
<path d="M678.317 100C648.044 100 618.103 105.934 589.515 116.514C609.542 132.926 625.871 153.054 639 175.526C647.619 174.088 656.136 172.664 665.077 172.664C759.583 172.664 820.908 254.115 802.689 354.102C784.465 454.116 693.396 535.982 598.876 535.982C586.188 535.982 574.26 534.277 563.17 531.578C525.57 522.425 496.592 498.487 478.566 466.621C461.134 435.805 453.518 397.048 461.344 354.102C468.261 316.142 486.357 281.845 510.182 253.034C497.19 234.095 479.205 220.126 457.48 212.519C423.488 253.248 398.373 301.479 388.785 354.102C378.401 411.091 387.517 463.352 410.386 506.035C426.787 536.646 449.748 562.023 478.823 579.58C509.081 597.852 545.171 608.425 585.675 608.425C719.961 608.425 849.501 494.568 875.095 354.102C900.685 213.667 812.608 100.001 678.317 100Z" fill="#ffffff" fill-rule="nonzero" opacity="1" stroke="none"/>
<path d="M438.432 100C304.137 100 174.492 213.649 148.9 354.102C123.313 494.525 211.489 608.425 345.791 608.425C376.182 608.425 406.093 602.529 434.745 591.911C414.686 575.51 398.266 555.376 385.108 532.899C376.468 534.331 367.909 535.982 358.991 535.982C264.464 535.982 203.243 454.073 221.459 354.102C239.685 254.074 330.691 172.664 425.192 172.664C437.861 172.664 449.63 174.187 460.633 176.847C498.263 185.946 527.647 209.634 545.734 241.584C563.182 272.405 570.619 311.215 562.804 354.102C555.904 391.968 537.872 426.344 514.117 455.171C527.023 474.057 544.69 488.247 566.172 495.907C600.25 455.129 625.596 406.87 635.211 354.102C645.587 297.158 636.485 245.024 613.722 202.39C597.36 171.745 574.385 146.209 545.325 128.625C515.086 110.328 479 100.001 438.432 100Z" fill="#ffffff" fill-rule="nonzero" opacity="1" stroke="none"/>
<g opacity="1">
<path d="M257.016 710.847L230.721 724.843C226.574 716.36 221.438 712.119 215.312 712.119C212.39 712.119 209.892 713.085 207.819 715.017C205.746 716.949 204.709 719.423 204.709 722.439C204.709 727.717 210.835 732.948 223.087 738.131C239.957 745.388 251.314 752.08 257.157 758.206C263 764.332 265.922 772.579 265.922 782.946C265.922 796.234 261.021 807.356 251.22 816.309C241.701 824.791 230.203 829.032 216.725 829.032C193.635 829.032 177.283 817.77 167.67 795.245L194.813 782.663C198.583 789.26 201.457 793.454 203.436 795.245C207.301 798.826 211.919 800.617 217.291 800.617C228.035 800.617 233.407 795.716 233.407 785.914C233.407 780.26 229.26 774.982 220.966 770.081C217.762 768.479 214.558 766.924 211.353 765.416C208.149 763.908 204.897 762.353 201.599 760.751C192.362 756.227 185.859 751.703 182.09 747.179C177.283 741.43 174.88 734.032 174.88 724.984C174.88 713.015 178.979 703.119 187.179 695.296C195.567 687.474 205.746 683.563 217.715 683.563C235.339 683.563 248.439 692.657 257.016 710.847Z" fill="#ffffff" fill-rule="nonzero" opacity="1" stroke="none"/>
<path d="M300.702 900L268.893 900L268.893 687.38L300.702 687.38L300.702 702.365C313.236 689.83 327.468 683.563 343.395 683.563C362.339 683.563 377.937 690.537 390.189 704.485C402.629 718.34 408.85 735.822 408.85 756.934C408.85 777.574 402.676 794.774 390.33 808.534C378.078 822.199 362.622 829.032 343.961 829.032C327.845 829.032 313.425 822.576 300.702 809.665L300.702 900ZM376.335 757.075C376.335 743.88 372.753 733.136 365.59 724.843C358.333 716.455 349.192 712.261 338.165 712.261C326.478 712.261 317.006 716.313 309.749 724.419C302.492 732.524 298.864 743.174 298.864 756.368C298.864 769.28 302.492 779.93 309.749 788.318C316.912 796.517 326.337 800.617 338.023 800.617C349.05 800.617 358.145 796.47 365.308 788.176C372.659 779.883 376.335 769.516 376.335 757.075Z" fill="#ffffff" fill-rule="nonzero" opacity="1" stroke="none"/>
<path d="M410.407 755.237C410.407 735.351 417.523 718.434 431.754 704.485C445.985 690.537 463.327 683.563 483.778 683.563C504.324 683.563 521.76 690.584 536.085 704.627C550.222 718.669 557.291 735.917 557.291 756.368C557.291 777.008 550.175 794.302 535.944 808.251C521.618 822.105 504.041 829.032 483.213 829.032C462.573 829.032 445.279 821.964 431.33 807.827C417.382 793.878 410.407 776.348 410.407 755.237ZM442.922 755.803C442.922 769.563 446.598 780.448 453.949 788.459C461.489 796.564 471.432 800.617 483.778 800.617C496.219 800.617 506.162 796.611 513.607 788.6C521.053 780.59 524.776 769.893 524.776 756.509C524.776 743.126 521.053 732.429 513.607 724.419C506.068 716.313 496.125 712.261 483.778 712.261C471.621 712.261 461.772 716.313 454.232 724.419C446.692 732.524 442.922 742.985 442.922 755.803Z" fill="#ffffff" fill-rule="nonzero" opacity="1" stroke="none"/>
<path d="M565.351 687.38L597.301 687.38L597.301 700.103C608.422 689.076 620.957 683.563 634.905 683.563C650.927 683.563 663.415 688.605 672.369 698.689C680.097 707.266 683.961 721.261 683.961 740.676L683.961 825.074L652.011 825.074L652.011 748.169C652.011 734.597 650.126 725.22 646.356 720.036C642.681 714.758 635.989 712.119 626.282 712.119C615.726 712.119 608.234 715.606 603.804 722.581C599.469 729.461 597.301 741.477 597.301 758.63L597.301 825.074L565.351 825.074L565.351 687.38Z" fill="#ffffff" fill-rule="nonzero" opacity="1" stroke="none"/>
<path d="M800.028 687.38L831.978 687.38L831.978 825.074L800.028 825.074L800.028 810.654C786.928 822.906 772.838 829.032 757.759 829.032C738.721 829.032 722.982 822.152 710.541 808.392C698.195 794.35 692.022 776.82 692.022 755.803C692.022 735.163 698.195 717.963 710.541 704.203C722.887 690.443 738.344 683.563 756.91 683.563C772.932 683.563 787.305 690.16 800.028 703.354L800.028 687.38ZM724.537 755.803C724.537 768.997 728.071 779.741 735.139 788.035C742.396 796.423 751.538 800.617 762.565 800.617C774.346 800.617 783.865 796.564 791.122 788.459C798.379 780.071 802.007 769.421 802.007 756.509C802.007 743.598 798.379 732.948 791.122 724.56C783.865 716.36 774.44 712.261 762.848 712.261C751.915 712.261 742.773 716.408 735.422 724.701C728.165 733.089 724.537 743.456 724.537 755.803Z" fill="#ffffff" fill-rule="nonzero" opacity="1" stroke="none"/>
</g>
</g>
</g>
</g>
</svg>
