<?xml version="1.0" encoding="UTF-8" standalone="no"?>
<!DOCTYPE svg PUBLIC "-//W3C//DTD SVG 1.1//EN" "http://www.w3.org/Graphics/SVG/1.1/DTD/svg11.dtd">
<!-- Created with Vectornator (http://vectornator.io/) -->
<svg height="1024.0px" stroke-miterlimit="10" style="fill-rule:nonzero;clip-rule:evenodd;stroke-linecap:round;stroke-linejoin:round;" version="1.1" viewBox="0 0 1024 1024" width="1024.0px" xml:space="preserve" xmlns="http://www.w3.org/2000/svg" xmlns:xlink="http://www.w3.org/1999/xlink">
<defs/>
<g id="Ebene-1">
<g opacity="1">
<path d="M681.017 235.319C648.068 235.319 615.481 241.778 584.366 253.293C606.163 271.155 623.936 293.063 638.225 317.521C647.606 315.955 656.875 314.405 666.606 314.405C769.465 314.405 836.211 403.055 816.381 511.88C796.547 620.733 697.429 709.835 594.554 709.835C580.745 709.835 567.762 707.979 555.693 705.041C514.77 695.08 483.23 669.026 463.611 634.343C444.639 600.804 436.349 558.622 444.866 511.88C452.395 470.564 472.091 433.236 498.022 401.879C483.881 381.266 464.307 366.062 440.661 357.782C403.665 402.112 376.331 454.606 365.895 511.88C354.593 573.905 364.515 630.785 389.405 677.242C407.255 710.558 432.246 738.177 463.891 757.286C496.823 777.173 536.103 788.681 580.187 788.681C726.341 788.681 867.331 664.761 895.187 511.88C923.038 359.032 827.177 235.32 681.017 235.319Z" fill="#000000" fill-rule="nonzero" opacity="1" stroke="none"/>
<path d="M419.93 235.319C273.766 235.319 132.662 359.013 104.808 511.88C76.9597 664.714 172.929 788.68 319.1 788.681C352.178 788.681 384.733 782.264 415.916 770.707C394.085 752.856 376.213 730.943 361.892 706.479C352.49 708.038 343.174 709.835 333.467 709.835C230.585 709.835 163.954 620.686 183.78 511.88C203.617 403.011 302.666 314.405 405.519 314.405C419.309 314.405 432.117 316.063 444.093 318.959C485.049 328.861 517.03 354.643 536.716 389.417C555.705 422.962 563.799 465.202 555.294 511.88C547.785 553.092 528.159 590.506 502.304 621.881C516.351 642.437 535.579 657.881 558.959 666.218C596.049 621.836 623.636 569.311 634.1 511.88C645.393 449.903 635.488 393.161 610.712 346.758C592.904 313.405 567.899 285.612 536.27 266.474C503.359 246.56 464.083 235.32 419.93 235.319Z" fill="#000000" fill-rule="nonzero" opacity="1" stroke="none"/>
</g>
</g>
</svg>
